<svg id="LOGO2" xmlns="http://www.w3.org/2000/svg" viewBox="0 0 218.5 98.01">
  <defs>
    <style>
      .cls-1 {
        fill: #1bc09b;
      }
    </style>
  </defs>
  <title>logo</title>
  <path class="cls-1" d="M200.58,95.67a2.23,2.23,0,0,0,1.31-.38v1.56a3,3,0,0,1-1.4.29,3.15,3.15,0,0,1-2.17-.77,2.71,2.71,0,0,1,0-4,3.13,3.13,0,0,1,2.17-.77,2.87,2.87,0,0,1,1.33.28v1.54a2.61,2.61,0,0,0-1.29-.35,1.41,1.41,0,0,0-1,.37,1.18,1.18,0,0,0-.39.91,1.19,1.19,0,0,0,.41.94A1.56,1.56,0,0,0,200.58,95.67Zm-48-2.16c0,1.26-.15,1.84-.34,2a.59.59,0,0,1-.41.12.89.89,0,0,1-.37-.1V97a1.4,1.4,0,0,0,.74.14,1.46,1.46,0,0,0,1.33-.66,5,5,0,0,0,.54-2.67v-.63h1.08V97h1.62V91.74h-4.18Zm41-1.81L195.75,97H194l-.38-1H191.9l-.38,1h-1.68L192,91.7Zm-.42,3.12-.38-1.25-.4,1.25Zm14.61-3.12L210,97H208.2l-.38-1h-1.73l-.38,1H204l2.18-5.33Zm-.42,3.12L207,93.57l-.4,1.25Zm-73.5-2.6a1.67,1.67,0,0,1,0,2.48,2.1,2.1,0,0,1-1.46.49h-.81V97H130V91.74h2.43A2.09,2.09,0,0,1,133.84,92.22Zm-1.12,1.31a.5.5,0,0,0-.56-.47h-.59v1h.59A.5.5,0,0,0,132.72,93.53Zm70.59-36.62V79.37h7.44V71.76h6.83V65.57h-6.87V63.23h7.79V56.91ZM141.42,92.44a2.67,2.67,0,0,1,.8,1.94,2.69,2.69,0,0,1-.8,2,3,3,0,0,1-4.07,0,2.76,2.76,0,0,1,0-3.89,3,3,0,0,1,4.07,0Zm-.86,1.94a1.25,1.25,0,0,0-.33-.9,1.14,1.14,0,0,0-1.68,0,1.25,1.25,0,0,0-.34.9,1.32,1.32,0,0,0,.34.92,1.16,1.16,0,0,0,1.68,0A1.31,1.31,0,0,0,140.56,94.38Zm46.92-1.69a2.23,2.23,0,0,1,.65,1.62,2.28,2.28,0,0,1-.65,1.63,2.7,2.7,0,0,1-1.83.75v.59H184v-.59a2.72,2.72,0,0,1-1.83-.75,2.26,2.26,0,0,1-.67-1.63,2.2,2.2,0,0,1,.67-1.62,2.63,2.63,0,0,1,1.83-.75v-.46h1.62v.46A2.61,2.61,0,0,1,187.48,92.69Zm-3.45.63a.89.89,0,0,0-.83,1,.92.92,0,0,0,.83,1Zm2.45,1a.9.9,0,0,0-.83-1v2A.92.92,0,0,0,186.48,94.31Zm-34.72-65.9h-7.63V50.87h7.63Zm65.18,67.22h.66V98h-1.52V97h-2.8v1h-1.52V95.63h.54a6.15,6.15,0,0,0,.51-2.87v-1h4.13Zm-1.62-2.49h-1a11.31,11.31,0,0,1-.1,1.35,3.85,3.85,0,0,1-.31,1.14h1.39ZM172,94.37V91.74H170.4V97h1.38l2-2.61V97h1.56V91.74H174Zm-6-54.22h.13l6.22,10.72h7.72V28.41h-7.18l.32,11.39h-.13l-6.42-11.39h-7.52V50.87h7.18Zm-36.05,3.1h6.83V37.07H129.9V34.72h7.79V28.41H122.5V50.87h7.44Zm38.91,19.9a12.09,12.09,0,0,1,1,4.87,12.42,12.42,0,0,1-1,4.91,11.14,11.14,0,0,1-2.64,3.79,11.7,11.7,0,0,1-4,2.43,14.87,14.87,0,0,1-9.91,0,11.65,11.65,0,0,1-4-2.43,11.23,11.23,0,0,1-2.62-3.79A12.42,12.42,0,0,1,144.8,68a12.09,12.09,0,0,1,.95-4.87,11,11,0,0,1,2.62-3.7,11.77,11.77,0,0,1,4-2.34,15.21,15.21,0,0,1,9.91,0,11.82,11.82,0,0,1,4,2.34A10.87,10.87,0,0,1,168.85,63.15ZM161.73,68a5.81,5.81,0,0,0-.33-2,4.25,4.25,0,0,0-.94-1.52,4.34,4.34,0,0,0-3.17-1.32,4.56,4.56,0,0,0-1.78.35A4.12,4.12,0,0,0,153.17,66a5.81,5.81,0,0,0-.33,2,6,6,0,0,0,.33,2,4.83,4.83,0,0,0,.92,1.58,3.94,3.94,0,0,0,1.42,1,4.24,4.24,0,0,0,1.78.37,4.15,4.15,0,0,0,1.76-.37,4.08,4.08,0,0,0,1.41-1,4.71,4.71,0,0,0,.94-1.58A6,6,0,0,0,161.73,68ZM149.12,94.55a1.39,1.39,0,0,1,.33,1,1.34,1.34,0,0,1-.54,1.11,2.18,2.18,0,0,1-1.4.42h-2.8V91.74h2.68a2,2,0,0,1,1.21.34,1.16,1.16,0,0,1,.48,1,1,1,0,0,1-.21.64,1.29,1.29,0,0,1-.43.37A1.2,1.2,0,0,1,149.12,94.55Zm-2.79-.84h.83a.35.35,0,0,0,.38-.34.36.36,0,0,0-.38-.37h-.83Zm1.34,1.58a.44.44,0,0,0-.48-.44h-.86v.87h.86A.42.42,0,0,0,147.67,95.29Zm13.85-3.55h2.55V97h-1.63V95.14h-.21L160.81,97h-1.89L160.5,95a1.68,1.68,0,0,1-1-1.52,1.57,1.57,0,0,1,.55-1.22A2.06,2.06,0,0,1,161.52,91.74Zm.19,1.36c-.3,0-.5.16-.5.42s.2.43.5.43h.73V93.1ZM186.35,80a14,14,0,0,1-4.95-.85,11.56,11.56,0,0,1-4-2.43,11.09,11.09,0,0,1-2.62-3.79,12.25,12.25,0,0,1-.95-4.91,11.92,11.92,0,0,1,.95-4.87,10.82,10.82,0,0,1,2.62-3.7,11.68,11.68,0,0,1,4-2.34,15.21,15.21,0,0,1,9.91,0,12,12,0,0,1,4,2.34,10.71,10.71,0,0,1,2.63,3.7,11.92,11.92,0,0,1,1,4.87,12.25,12.25,0,0,1-1,4.91,11,11,0,0,1-2.63,3.79,11.89,11.89,0,0,1-4,2.43A14.08,14.08,0,0,1,186.35,80Zm-1.78-7.34a4.24,4.24,0,0,0,1.78.37,4.11,4.11,0,0,0,1.76-.37,4.21,4.21,0,0,0,1.42-1,4.69,4.69,0,0,0,.93-1.58,5.77,5.77,0,0,0,.34-2,5.58,5.58,0,0,0-.34-2,4.23,4.23,0,0,0-.93-1.52,4.65,4.65,0,0,0-1.42-1,4.42,4.42,0,0,0-1.76-.35,4.56,4.56,0,0,0-1.78.35,4.27,4.27,0,0,0-1.41,1,4.36,4.36,0,0,0-.92,1.52,5.58,5.58,0,0,0-.34,2,5.77,5.77,0,0,0,.34,2,4.83,4.83,0,0,0,.92,1.58A3.9,3.9,0,0,0,184.57,72.66ZM127.44,91.74h-1.91l-1.49,2v-2h-1.63V97H124V94.75L125.82,97h2l-2.25-2.84Zm76-47.15h-8.89v-2.1h7.84V36.63h-7.84V34.69h8.35V28.41H187.43V50.87h16ZM137.35,70.27l5.7,9.1h-8.68l-4.31-8h-.22v8H122.5V56.91h9.69a16.63,16.63,0,0,1,3.29.34,8.29,8.29,0,0,1,2.92,1.17,6.35,6.35,0,0,1,2.08,2.25,7.13,7.13,0,0,1,.79,3.54,6.36,6.36,0,0,1-3.92,6.06Zm-3.48-5.74a1.74,1.74,0,0,0-.22-1,1.36,1.36,0,0,0-.56-.53,2.47,2.47,0,0,0-.76-.22,7.07,7.07,0,0,0-.76,0h-1.79V66.4h1.48a5.07,5.07,0,0,0,.83-.07,2.63,2.63,0,0,0,.85-.26,1.87,1.87,0,0,0,.67-.58A1.63,1.63,0,0,0,133.87,64.53Zm-79.3,6.74a1.18,1.18,0,1,0,1.18,1.18A1.18,1.18,0,0,0,54.57,71.27Zm-2.14-3a1.18,1.18,0,1,0,1.18,1.18A1.18,1.18,0,0,0,52.43,68.29Zm6.35,9.17A1.18,1.18,0,1,0,60,78.64,1.18,1.18,0,0,0,58.78,77.46Zm0-3.83a1.18,1.18,0,1,0-1.18-1.18A1.18,1.18,0,0,0,58.78,73.63Zm-2.1-5.34a1.18,1.18,0,1,0,1.18,1.18A1.18,1.18,0,0,0,56.68,68.29Zm0,6a1.18,1.18,0,1,0,1.18,1.18A1.18,1.18,0,0,0,56.68,74.33Zm-4.25,0a1.18,1.18,0,1,0,1.18,1.18A1.18,1.18,0,0,0,52.43,74.33Zm-2.11-3.06a1.18,1.18,0,1,0,1.18,1.18A1.17,1.17,0,0,0,50.32,71.27Zm4.25,6.19a1.18,1.18,0,1,0,1.18,1.18A1.18,1.18,0,0,0,54.57,77.46Zm6.32,3.35A1.18,1.18,0,1,0,62.07,82,1.18,1.18,0,0,0,60.89,80.81Zm-19-9.54a1.18,1.18,0,1,0,1.18,1.18A1.18,1.18,0,0,0,41.9,71.27Zm-2.1-.62a1.18,1.18,0,1,0-1.18-1.18A1.18,1.18,0,0,0,39.8,70.65Zm0,3.68A1.18,1.18,0,1,0,41,75.51,1.18,1.18,0,0,0,39.8,74.33Zm-2.11-3.06a1.18,1.18,0,1,0,1.18,1.18A1.18,1.18,0,0,0,37.69,71.27Zm23.2,3.06a1.18,1.18,0,1,0,1.18,1.18A1.18,1.18,0,0,0,60.89,74.33Zm-12.63,0a1.18,1.18,0,1,0,1.18,1.18A1.18,1.18,0,0,0,48.26,74.33Zm0-3.68a1.18,1.18,0,1,0-1.18-1.18A1.18,1.18,0,0,0,48.26,70.65Zm-2.15.62a1.18,1.18,0,1,0,1.18,1.18A1.18,1.18,0,0,0,46.11,71.27ZM44,74.33a1.18,1.18,0,1,0,1.18,1.18A1.18,1.18,0,0,0,44,74.33Zm0-3.68a1.18,1.18,0,1,0-1.18-1.18A1.18,1.18,0,0,0,44,70.65Zm16.88-2.36a1.18,1.18,0,1,0,1.18,1.18A1.18,1.18,0,0,0,60.89,68.29Zm-10.57-.74a1.18,1.18,0,1,0-1.17-1.18A1.18,1.18,0,0,0,50.32,67.55Zm4.25,0a1.18,1.18,0,1,0-1.18-1.18A1.18,1.18,0,0,0,54.57,67.55Zm-2.14-3a1.18,1.18,0,1,0-1.18-1.18A1.18,1.18,0,0,0,52.43,64.6Zm-4.17,0a1.18,1.18,0,1,0-1.18-1.18A1.18,1.18,0,0,0,48.26,64.6Zm-2.15,3a1.18,1.18,0,1,0-1.18-1.18A1.18,1.18,0,0,0,46.11,67.55Zm14.78-3a1.18,1.18,0,1,0-1.18-1.18A1.18,1.18,0,0,0,60.89,64.6Zm-4.21,0a1.18,1.18,0,1,0-1.18-1.18A1.18,1.18,0,0,0,56.68,64.6Zm2.1,3a1.18,1.18,0,1,0-1.18-1.18A1.18,1.18,0,0,0,58.78,67.55ZM35.6,70.65a1.18,1.18,0,1,0-1.18-1.18A1.18,1.18,0,0,0,35.6,70.65Zm0,6a1.18,1.18,0,1,0-1.18-1.18A1.18,1.18,0,0,0,35.6,76.69Zm0-12.09a1.18,1.18,0,1,0-1.18-1.18A1.18,1.18,0,0,0,35.6,64.6Zm69.34-36c0,.86,0,2.15,0,2.67-.06,3.46-.12,7.06-.16,9.91,0,2.09,0,3.78-.07,4.72A19.5,19.5,0,0,1,100.55,58V97H0v-9.7H0V29L50.83,0,83.68,18.91l.21-.35a3.3,3.3,0,0,1,2.1-1.7,4.79,4.79,0,0,1,3.39.65c2.34-1.71,4.92-.26,5.9.29l2,1.1c4.27,2.29,7.64,4.1,7.64,9.07ZM85.72,20.08l1.2.69c.3-.52.59-1,.83-1.4,0,0,0,0,0,0a2.09,2.09,0,0,0-1.2-.21,1,1,0,0,0-.63.57ZM61.8,25a3.72,3.72,0,0,1,1.45,2.18,3.5,3.5,0,0,1-.42,2.64l-.18.26a14.57,14.57,0,0,1,.49,2,9.86,9.86,0,0,1-.83,6.83A6,6,0,0,1,58.47,42l-.47.11v1.18h2.3c3.42,0,20.27,0,20.44,0h5.87c.43,0,.66-.07.72-.14.28-.28.25-1.61.23-2.78,0-.42,0-.88,0-1.36,0-.7,0-3.52,0-5.7L62.13,19a15.72,15.72,0,0,1,.48,2.9H64.7V24.2H61.8ZM75.44,45.7l0,16.54h4.18V45.69Zm-7.64,0c3.52,3.41,4.06,10,4.1,16.55H73L73.1,45.7Zm-15.14.1c.31,1.37.88,2.79,1.86,3.34a1.28,1.28,0,0,0,.62.2c.7,0,1.7-1,2.38-2.34A8.18,8.18,0,0,0,58,45.8ZM43.92,21.72H60.24a10.09,10.09,0,0,0-2.48-6.15,8,8,0,0,0-6.19-2.11C44.85,13.66,44,19.79,43.92,21.72Zm.95,2.48a23.19,23.19,0,0,1-.19,2.91c-.1.85-.27,1.84-.46,2.87a6,6,0,0,0,4.46-1.76,6.3,6.3,0,0,0,1.34-4ZM42.66,35.72a24.08,24.08,0,0,1-2.54,5.16c-.35.5-.82,1.16-1.27,1.69s-.8.89-.8.89h17.6V40a4.07,4.07,0,0,0,.43,0,7.29,7.29,0,0,0,1.78-.22,3.74,3.74,0,0,0,2.37-2A6.36,6.36,0,0,0,61,35.5H58.24V33.15h2.67c0-.23,0-.43-.08-.69s-.16-.69-.25-1a8.08,8.08,0,0,1-2.56.33c-1.83,0-2.32,0-2.32,3.57H53.36c0-3.92.72-5.92,4.66-5.92A5.51,5.51,0,0,0,60,29.17l-.07,0c.11,0,1.34-.35,1.07-1.51a1.33,1.33,0,0,0-1.51-1V24.2H57.74v1.88H55.4V24.2h-3a8.57,8.57,0,0,1-1.91,5.56c-1.52,1.73-3.78,2.6-6.75,2.6v-.07A29.62,29.62,0,0,1,42.66,35.72ZM38.29,45.8c2.51,1.87,5.3,3.42,7.36,3.42a3,3,0,0,0,1.12-.2,5.51,5.51,0,0,0,3.07-3.22ZM9.7,48.23A16,16,0,0,1,12.44,46c3.91-2.51,8.58-2.8,13.25-2.77h.16l2.37,0c1.08,0,2.16,0,3.25,0,1.31,0,2.47,0,3.41,0l1.48-1.48s.33-.35.71-.8.78-1,1.11-1.48l0,0a22.37,22.37,0,0,0,2.26-4.64,37.31,37.31,0,0,0,1.89-8.05,22.37,22.37,0,0,0,.17-2.63h-1l0-2.34a14.16,14.16,0,0,1,1-4.77L9.7,36Zm16.76-2.55-.65-.13c-1.36,0-2.7,0-4,.1,3.38,2.31,5.1,7.54,5.1,15.61,0,4.55,0,14.88.07,18.25h4.56V57.4C31.55,46.76,26.67,45.72,26.46,45.68ZM6.28,63.56h18.3v-2.3c0-7.3-1.47-12.08-4.25-13.81A5.93,5.93,0,0,0,15,47.26h0a13.53,13.53,0,0,0-1.29.71C8.54,51.28,6.51,58,6.28,63.56Zm0,6.89,18.37,0c0-1.54,0-3.07,0-4.51H6.24C6.23,67.61,6.23,69.22,6.23,70.45ZM37,81.85H28.89v0h-2c-2.39,0-4.07-.15-5.07-1.15A2.84,2.84,0,0,1,21,78.64V77.47h2.35v1.17c0,.33.08.41.12.45a2.4,2.4,0,0,0,1.19.37c0-1.4,0-3.9,0-6.71l-16.42,0v.74c0,7.35,1.64,12.56,5,15.93,2.94,2.94,7.28,4.42,12.92,4.4A37,37,0,0,0,37,92.24Zm19.1,5.4a5.5,5.5,0,0,0-1.86-3.66c-2.34-1.75-6.87-1.73-6.92-1.75h-8v9.57A22.94,22.94,0,0,0,46,87.57l.34-.32h9.78Zm6.32-25.54-28.54-.06V79.51h3a1.15,1.15,0,0,1-.4-.86,1.18,1.18,0,1,1,2.36,0,1.15,1.15,0,0,1-.4.86h2.64a1.2,1.2,0,0,1-.39-.86,1.18,1.18,0,1,1,2.36,0,1.16,1.16,0,0,1-.39.86h2.63a1.12,1.12,0,0,1-.39-.85,1.18,1.18,0,1,1,2.36,0,1.15,1.15,0,0,1-.38.85h.42a21.35,21.35,0,0,1,2.47.19,1.17,1.17,0,1,1,1.7-1,1.16,1.16,0,0,1-1,1.14,12.26,12.26,0,0,1,5.06,1.89,1.17,1.17,0,0,1,1.11-.86A1.18,1.18,0,0,1,57.86,82,1.16,1.16,0,0,1,57,83.11a7.6,7.6,0,0,1,1,1.84,1.17,1.17,0,0,1,2,.81,1.18,1.18,0,0,1-1.18,1.18,1.1,1.1,0,0,1-.36-.07c0,.14,0,.27,0,.38h0v.08h3.92Zm0-4.79a15.07,15.07,0,0,0-2.67-9.2c0,.11-.09.23-.14.34-.95,1.88-2.56,3.62-4.48,3.62a3.51,3.51,0,0,1-1.77-.5,5.77,5.77,0,0,1-2.31-2.78,7.26,7.26,0,0,1-3.42,2.79,5.14,5.14,0,0,1-2,.37c-3.84,0-8.47-3.47-11.25-5.9l-2.93,0-1,0c1.72,1.91,3.4,5.41,3.4,11.78v1.91l28.54.06Zm7.13,6.22c0-12.09-2-17-7.27-17.45H61.13c.15.15,3.64,3.77,3.64,11.22V87.33h4.66C69.47,82.71,69.56,68.9,69.56,63.14Zm21.29.25a16.07,16.07,0,0,1-2.21.17H81.92v1l-10,0c0,6.37-.1,18.45-.13,22.74H90.85Zm0-28.19-.95-.53c0,1.37,0,2.78,0,3.66h0v2.11c0,4.22,0,6.55-1.26,7.81a3,3,0,0,1-2.22.84H85.27V46.75h1.17c.42,0,.52-.11.57-.15a2.12,2.12,0,0,0,.37-1,4.44,4.44,0,0,1-.77.12H81.92V61.21h6.72A13.36,13.36,0,0,0,90.85,61Zm11.74-6.57V28c0-3.41-2.07-4.68-6.39-7-.66-.36-1.36-.73-2.07-1.13-2.19-1.23-3.3-1-4.38.75-.9,1.49-3,5-3,5a1.27,1.27,0,0,0-.19.63,2,2,0,0,0,1,1.19c1.61,1,3.74,2.19,5.3,3.08.89.5,1.58.9,1.88,1.08a1.77,1.77,0,0,0,1.25.34,1.24,1.24,0,0,0,.7-.63c.34-.57,1.54-2.64,1.54-2.64l2.25,1.26V53.68a18.67,18.67,0,0,0,1.81-7.81c0-.94,0-2.62.07-4.7,0-2.86.09-6.46.16-9.92C102.6,30.74,102.6,29.47,102.59,28.63ZM44,64.6a1.18,1.18,0,1,0-1.18-1.18A1.18,1.18,0,0,0,44,64.6Zm-6.32,3a1.18,1.18,0,1,0-1.18-1.18A1.18,1.18,0,0,0,37.69,67.55Zm4.21,0a1.18,1.18,0,1,0-1.18-1.18A1.18,1.18,0,0,0,41.9,67.55Zm-2.1-3a1.18,1.18,0,1,0-1.18-1.18A1.18,1.18,0,0,0,39.8,64.6Z"/>
</svg>
