<?xml version="1.0" encoding="utf-8"?>
<!-- Generator: Adobe Illustrator 18.0.0, SVG Export Plug-In . SVG Version: 6.00 Build 0)  -->
<!DOCTYPE svg PUBLIC "-//W3C//DTD SVG 1.1//EN" "http://www.w3.org/Graphics/SVG/1.1/DTD/svg11.dtd" [
	<!ENTITY ns_extend "http://ns.adobe.com/Extensibility/1.0/">
	<!ENTITY ns_ai "http://ns.adobe.com/AdobeIllustrator/10.0/">
	<!ENTITY ns_graphs "http://ns.adobe.com/Graphs/1.0/">
	<!ENTITY ns_vars "http://ns.adobe.com/Variables/1.0/">
	<!ENTITY ns_imrep "http://ns.adobe.com/ImageReplacement/1.0/">
	<!ENTITY ns_sfw "http://ns.adobe.com/SaveForWeb/1.0/">
	<!ENTITY ns_custom "http://ns.adobe.com/GenericCustomNamespace/1.0/">
	<!ENTITY ns_adobe_xpath "http://ns.adobe.com/XPath/1.0/">
]>
<svg version="1.1" id="О" xmlns:x="&ns_extend;" xmlns:i="&ns_ai;" xmlns:graph="&ns_graphs;"
	 xmlns="http://www.w3.org/2000/svg" xmlns:xlink="http://www.w3.org/1999/xlink" x="0px" y="0px" viewBox="0 0 209 196.45996"
	 enable-background="new 0 0 209 196.45996" xml:space="preserve">

			<path class="stage4" fill="#32BA99" d="M130.81592,131.91113c-3.59424,0-6.51855,2.92383-6.51855,6.51855s2.92432,6.51855,6.51855,6.51855
				s6.51855-2.92383,6.51855-6.51855S134.41016,131.91113,130.81592,131.91113z M130.81592,141.44824
				c-1.66455,0-3.01855-1.35449-3.01855-3.01855s1.354-3.01855,3.01855-3.01855s3.01855,1.35449,3.01855,3.01855
				S132.48047,141.44824,130.81592,141.44824z M101.09424,138.42969c0-3.59473-2.92383-6.51855-6.51807-6.51855
				s-6.51855,2.92383-6.51855,6.51855s2.92432,6.51855,6.51855,6.51855S101.09424,142.02441,101.09424,138.42969z
				 M91.55762,138.42969c0-1.66406,1.354-3.01855,3.01855-3.01855c1.66406,0,3.01807,1.35449,3.01807,3.01855
				s-1.354,3.01855-3.01807,3.01855C92.91162,141.44824,91.55762,140.09375,91.55762,138.42969z M127.6958,153.59961h-8.92969h-1.75
				h-17.3999c-4.07471,0-7.39014,3.31543-7.39014,7.39062c0,4.07422,3.31543,7.38965,7.39014,7.38965h28.07959
				c4.07471,0,7.39014-3.31543,7.39014-7.38965C135.08594,156.91504,131.77051,153.59961,127.6958,153.59961z M95.72607,160.99023
				c0-2.14551,1.74512-3.89062,3.89014-3.89062h5.14392c-3.09802,2.33362-4.52386,5.38812-4.94696,7.78027h-0.19696
				C97.47119,164.87988,95.72607,163.13477,95.72607,160.99023z M127.6958,164.87988h-24.29523
				c0.6828-2.54639,3.33533-7.78027,13.61554-7.78027h1.75h8.92969c2.14502,0,3.89014,1.74512,3.89014,3.89062
				C131.58594,163.13477,129.84082,164.87988,127.6958,164.87988z M139.72168,123.0332l1.35645,1.10547l-2.21045,2.71289
				l-1.35693-1.10547c-24.52588-19.98145-47.71191-1.39258-47.94336-1.2041l-1.35205,1.11133l-2.22217-2.7041l1.35156-1.11035
				C87.59814,121.62891,112.99902,101.25781,139.72168,123.0332z M164.60596,21.83984V5.9502c0-3.28076-2.66943-5.9502-5.9502-5.9502
				s-5.94971,2.66943-5.94971,5.9502v15.88965h-48.96289L61.25,98.78027h13.21582v49.08252l-0.75488,0.57861
				c-0.1001,0.07715-10.08105,7.72852-13.80908,10.41504c-3.17163,2.28534-22.56696,14.08319-26.45404,16.4444
				c-1.11115-1.75055-2.5141-3.26141-3.92536-4.19635c-2.59717-1.7207-4.45312-1.10352-5.32715-0.58301
				c-0.83008,0.49414-1.38574,1.26855-1.60791,2.23828c-0.21826,0.95605-0.07324,2.03613,0.229,3.07031l-0.8833,0.32129
				c-3.83691,1.39355-8.00586,3.16406-8.90723,6.55859c-0.49365,1.85938,0.10791,3.80664,1.7876,5.78711
				c1.70801,2.01465,4.11182,3.04785,6.97266,3.04785c1.28418,0,2.66113-0.20801,4.1084-0.62988
				c4.32129-1.25781,9.2627-4.63281,9.71094-7.8916c0.19873-1.44495-0.05939-3.02466-0.60803-4.56927
				c3.26971-1.9837,23.54987-14.30719,26.95081-16.75787c2.97485-2.14453,9.63232-7.2196,12.51758-9.42529v44.18896h83.66016
				v-0.22333l13.32861-12.88507l-0.36865-0.38141v-31.45551l2.26025-2.26038v23.18909h9.39307l9.4668-9.15137V21.83984H164.60596z
				 M32.1377,182.54688c-0.146,1.0625-3.22266,3.84375-7.22168,5.00781c-1.89062,0.5498-5.37109,1.11133-7.43359-1.32129
				c-0.89453-1.05566-1.25586-1.93848-1.07373-2.625c0.50732-1.91113,4.86084-3.49219,6.71973-4.16797l1.09424-0.39746
				c0.2627,0.46387,0.48486,0.80957,0.59961,0.98242l0.96533,1.45996l2.91895-1.93066l-0.96533-1.45898
				c-1.13232-1.71289-2.00391-4.03516-1.75537-4.56738c0.27246-0.16113,0.91504,0.03809,1.60352,0.49414
				C29.96435,175.5957,32.52295,179.74902,32.1377,182.54688z M165.22717,65.35742h-0.12952v0.24023l-10.4411,19.3623h-0.03058
				v0.05664l-5.53467,10.26367h-15.8689l27.26068-49.35046c2.38904-0.77319,4.12286-3.01666,4.12286-5.65979v-1.41553l0.69971-1.2666
				c4.12549-7.46777,6.52393-12.19678,6.54736-12.24365l0.0022-0.00439h14.95142L165.22717,65.35742z M82.73364,95.28027
				l38.63409-69.94043h12.36395L95.09711,95.28027H82.73364z M137.73004,25.33984h12.59735L111.6933,95.28027H99.09546
				L137.73004,25.33984z M152.70605,28.27197v11.99805c0,2.53583,1.59741,4.70013,3.83655,5.55499l-27.31854,49.45526h-13.53241
				L152.70605,28.27197z M167.91772,25.33984c-0.6925,1.33124-1.81488,3.46436-3.31177,6.23169v-6.23169H167.91772z
				 M156.20605,5.9502c0-1.35107,1.09912-2.4502,2.44971-2.4502c1.35107,0,2.4502,1.09912,2.4502,2.4502v34.31982
				c0,1.35059-1.09912,2.44971-2.4502,2.44971c-1.35059,0-2.44971-1.09912-2.44971-2.44971V5.9502z M105.80859,25.33984h11.56079
				L78.73529,95.28027H67.18164L105.80859,25.33984z M77.96582,192.95996V98.78027h73.21436l3.4458-6.38995v100.56964H77.96582z
				 M176.84619,145.75409l3.21973-3.21991v26.40918h-3.21973V145.75409z M188.70605,161.80762l-5.14014,4.96875v-32.69141
				l-15.97998,15.98047v32.15778l-9.45996,9.14514V85.8999l6.97168-12.92834v17.25696h3.67676v-24.0752l8.41162-15.59857v15.5849h3.5
				V44.06433l8.02002-14.87244V161.80762z"/>
			<path class="stage3" fill="#32BA99" d="M130.81592,131.91113c-3.59424,0-6.51855,2.92383-6.51855,6.51855s2.92432,6.51855,6.51855,6.51855
					s6.51855-2.92383,6.51855-6.51855S134.41016,131.91113,130.81592,131.91113z M130.81592,141.44824
					c-1.66455,0-3.01855-1.35449-3.01855-3.01855s1.354-3.01855,3.01855-3.01855s3.01855,1.35449,3.01855,3.01855
					S132.48047,141.44824,130.81592,141.44824z M101.09424,138.42969c0-3.59473-2.92383-6.51855-6.51807-6.51855
					s-6.51855,2.92383-6.51855,6.51855s2.92432,6.51855,6.51855,6.51855S101.09424,142.02441,101.09424,138.42969z
					 M91.55762,138.42969c0-1.66406,1.354-3.01855,3.01855-3.01855c1.66406,0,3.01807,1.35449,3.01807,3.01855
					s-1.354,3.01855-3.01807,3.01855C92.91162,141.44824,91.55762,140.09375,91.55762,138.42969z M127.6958,153.59961h-8.92969h-1.75
					h-17.3999c-4.07471,0-7.39014,3.31543-7.39014,7.39062c0,4.07422,3.31543,7.38965,7.39014,7.38965h28.07959
					c4.07471,0,7.39014-3.31543,7.39014-7.38965C135.08594,156.91504,131.77051,153.59961,127.6958,153.59961z M95.72607,160.99023
					c0-2.14551,1.74512-3.89062,3.89014-3.89062h5.14392c-3.09802,2.33362-4.52386,5.38812-4.94696,7.78027h-0.19696
					C97.47119,164.87988,95.72607,163.13477,95.72607,160.99023z M127.6958,164.87988h-24.29523
					c0.6828-2.54639,3.33533-7.78027,13.61554-7.78027h1.75h8.92969c2.14502,0,3.89014,1.74512,3.89014,3.89062
					C131.58594,163.13477,129.84082,164.87988,127.6958,164.87988z M139.72168,123.0332l1.35645,1.10547l-2.21045,2.71289
					l-1.35693-1.10547c-24.5249-19.98145-47.71191-1.39258-47.94336-1.2041l-1.35205,1.11133l-2.22217-2.7041l1.35156-1.11035
					C87.59912,121.62891,112.99902,101.25781,139.72168,123.0332z M164.60596,21.83984V5.9502c0-3.28076-2.66943-5.9502-5.9502-5.9502
					s-5.94971,2.66943-5.94971,5.9502v15.88965h-48.96289L61.25,98.78027h13.21582v48.92499l-0.89941,0.86017
					c-0.03516,0.0332-3.56396,3.39453-7.4585,6.06055c-3.27588,2.24121-5.70361,3.42773-7.87011,3.84766
					c-2.2027,0.42175-17.63751-0.23676-26.90613-0.75659c-0.05872-2.46844-0.67188-4.93372-1.65784-6.68384
					c-1.53076-2.71582-3.46338-3.0127-4.48047-2.94531c-0.96338,0.0625-1.81006,0.49902-2.44922,1.26172
					c-0.62939,0.75195-0.9917,1.78125-1.19287,2.83984l-0.93213-0.11621c-4.05078-0.50586-8.56836-0.82617-10.9165,1.78711
					c-1.28564,1.43066-1.63623,3.43848-1.0415,5.9668c0.87646,3.72559,3.99023,6.28125,8.76758,7.19531
					c1.13525,0.2168,2.37061,0.32812,3.61182,0.32812c3.59033,0,7.22754-0.93262,8.62598-2.9375
					c0.63654-0.91248,1.07251-2.01617,1.34027-3.20905l0.05377,0.00299c1.97412,0.11133,16.14258,0.89258,23.64209,0.89258
					c1.98145,0,3.49805-0.05371,4.2002-0.19043c2.65967-0.51465,5.49121-1.87012,9.18164-4.39453
					c2.55713-1.75012,4.91748-3.7381,6.38135-5.03345v43.97876h83.66016v-0.22333l13.32861-12.88507l-0.36865-0.38141v-31.45551
					l2.26025-2.26038v23.18909h9.39307l9.4668-9.15137V21.83984H164.60596z M26.79541,162.41113
					c-0.61328,0.87988-4.61768,1.95215-8.70947,1.17383c-1.93408-0.37012-5.2876-1.45508-6.01758-4.55859
					c-0.31689-1.34766-0.23682-2.29883,0.23779-2.82715c0.67676-0.75293,2.21094-0.9707,3.81103-0.9707
					c1.52539,0,3.11084,0.19824,4.06836,0.31738l1.15625,0.14453c0.02344,0.53125,0.06348,0.94043,0.08643,1.14648l0.1958,1.73926
					l3.47803-0.39062l-0.19531-1.73926c-0.22949-2.04102,0.05078-4.50586,0.51318-4.86621
					c0.30518,0.00488,0.79834,0.4502,1.20459,1.1709C28.02295,155.2334,28.41113,160.0957,26.79541,162.41113z M165.22717,65.35742
					h-0.12952v0.24023l-10.4411,19.3623h-0.03058v0.05664l-5.53467,10.26367h-15.8689l27.26068-49.35046
					c2.38904-0.77319,4.12286-3.01666,4.12286-5.65979v-1.41553l0.69971-1.2666c4.12549-7.46777,6.52393-12.19678,6.54736-12.24365
					l0.0022-0.00439h14.95142L165.22717,65.35742z M82.73364,95.28027l38.63409-69.94043h12.36395L95.09711,95.28027H82.73364z
					 M137.73004,25.33984h12.59735L111.6933,95.28027H99.09546L137.73004,25.33984z M152.70605,28.27197v11.99805
					c0,2.53583,1.59741,4.70013,3.83655,5.55499l-27.31854,49.45526h-13.53241L152.70605,28.27197z M167.91772,25.33984
					c-0.6925,1.33124-1.81488,3.46436-3.31177,6.23169v-6.23169H167.91772z M156.20605,5.9502
					c0-1.35107,1.09912-2.4502,2.44971-2.4502c1.35107,0,2.4502,1.09912,2.4502,2.4502v34.31982
					c0,1.35059-1.09912,2.44971-2.4502,2.44971c-1.35059,0-2.44971-1.09912-2.44971-2.44971V5.9502z M105.80859,25.33984h11.56079
					L78.73529,95.28027H67.18164L105.80859,25.33984z M77.96582,192.95996V98.78027h73.21436l3.4458-6.38995v100.56964H77.96582z
					 M176.84619,145.75409l3.21973-3.21991v26.40918h-3.21973V145.75409z M188.70605,161.80762l-5.14014,4.96875v-32.69141
					l-15.97998,15.98047v32.15778l-9.45996,9.14514V85.8999l6.97168-12.92834v17.25696h3.67676v-24.0752l8.41162-15.59857v15.5849h3.5
					V44.06433l8.02002-14.87244V161.80762z"/>
			<path class="stage2" fill="#32BA99" d="M130.81641,131.91113c-3.59473,0-6.51855,2.92383-6.51855,6.51855s2.92383,6.51855,6.51855,6.51855
					s6.51855-2.92383,6.51855-6.51855S134.41113,131.91113,130.81641,131.91113z M130.81641,141.44824
					c-1.66406,0-3.01855-1.35449-3.01855-3.01855s1.35449-3.01855,3.01855-3.01855s3.01855,1.35449,3.01855,3.01855
					S132.48047,141.44824,130.81641,141.44824z M101.09473,138.42969c0-3.59473-2.92383-6.51855-6.51855-6.51855
					s-6.51855,2.92383-6.51855,6.51855s2.92383,6.51855,6.51855,6.51855S101.09473,142.02441,101.09473,138.42969z
					 M91.55762,138.42969c0-1.66406,1.35449-3.01855,3.01855-3.01855s3.01855,1.35449,3.01855,3.01855
					s-1.35449,3.01855-3.01855,3.01855S91.55762,140.09375,91.55762,138.42969z M127.69629,153.59961h-8.92969h-1.75H99.61621
					c-4.07422,0-7.38965,3.31543-7.38965,7.39062c0,4.07422,3.31543,7.38965,7.38965,7.38965h28.08008
					c4.07422,0,7.38965-3.31543,7.38965-7.38965C135.08594,156.91504,131.77051,153.59961,127.69629,153.59961z M95.72656,160.99023
					c0-2.14551,1.74512-3.89062,3.88965-3.89062h5.14423c-3.09821,2.33362-4.52417,5.38812-4.94727,7.78027h-0.19696
					C97.47168,164.87988,95.72656,163.13477,95.72656,160.99023z M127.69629,164.87988H103.4007
					c0.68304-2.54639,3.33606-7.78027,13.61591-7.78027h1.75h8.92969c2.14453,0,3.88965,1.74512,3.88965,3.89062
					C131.58594,163.13477,129.84082,164.87988,127.69629,164.87988z M139.72168,123.0332l1.35645,1.10547l-2.21094,2.71289
					l-1.35645-1.10547c-24.52441-19.98145-47.71191-1.39258-47.94336-1.2041l-1.35254,1.11133l-2.22168-2.7041l1.35156-1.11035
					C87.59961,121.62988,113.00098,101.25879,139.72168,123.0332z M164.60645,21.83984V5.9502c0-3.28076-2.66895-5.9502-5.9502-5.9502
					s-5.9502,2.66943-5.9502,5.9502v15.88965h-48.96191L61.25049,98.78027h13.21533v48.96216l-0.87109,0.79663
					c-0.02148,0.01953-2.22412,2.03027-6.41455,5.45605c-0.39307,0.32129-0.77734,0.64551-1.15723,0.96582
					c-2.47558,2.08691-4.43017,3.74023-7.23681,3.4668c-2.56836-0.24609-6.43066-4.15332-10.16553-7.93164l-0.21191-0.21484
					c-3.74756-3.79059-8.49133-9.92126-10.14594-12.09705c1.41754-1.2547,2.58362-2.7041,3.26801-4.09827
					c1.37354-2.79785,0.52344-4.55859-0.10596-5.35938c-0.59668-0.75977-1.43555-1.21094-2.42627-1.30664
					c-0.97803-0.08887-2.0293,0.18945-3.0166,0.62305l-0.43115-0.83496c-1.875-3.62598-4.16699-7.53223-7.64893-7.99023
					c-1.90625-0.24609-3.76172,0.59668-5.50977,2.51758c-2.57666,2.8291-2.92236,6.8418-0.97363,11.29785
					c1.80322,4.12402,5.78564,8.59082,9.07422,8.61621c0.01807,0,0.03613,0,0.05469,0c1.5976,0,3.28467-0.55286,4.86432-1.43097
					c1.6275,2.14752,6.51056,8.48029,10.50775,12.52374l0.2124,0.21387c4.55469,4.6084,8.48877,8.58789,12.31934,8.95605
					c0.32715,0.03125,0.64502,0.0459,0.95557,0.0459c3.74707,0,6.34961-2.19434,8.87255-4.32129
					c0.36621-0.30957,0.7373-0.62207,1.11621-0.93262c2.30078-1.88043,3.97809-3.31207,5.07031-4.26245v44.01831h83.66016v-0.22382
					l13.3291-12.88458l-0.36914-0.3819v-31.45502l2.25977-2.25977v23.18848h9.39453l9.46582-9.15137V21.83984H164.60645z
					 M30.52002,138.14941c-1.07324-0.00781-4.22559-2.70215-5.89453-6.51855c-0.78906-1.80371-1.79199-5.18164,0.35449-7.54004
					c0.85547-0.93945,1.62451-1.41406,2.29004-1.41406c0.05908,0,0.11816,0.00391,0.17578,0.01172
					c1.96094,0.25781,4.0874,4.37012,4.99561,6.12695l0.53516,1.03516c-0.42529,0.32031-0.73975,0.58398-0.89697,0.7207
					l-1.32324,1.14453l2.29004,2.64746l1.32324-1.14551c1.55322-1.34375,3.74805-2.50195,4.30322-2.3291
					c0.19434,0.24805,0.08057,0.91309-0.28418,1.65527c-1.25049,2.54785-5.01758,5.60547-7.83838,5.60547
					C30.54053,138.14941,30.52979,138.14941,30.52002,138.14941z M165.22693,65.35742h-0.12927v0.23969l-10.44153,19.36285h-0.03015
					v0.05591l-5.53516,10.2644h-15.86841l27.2605-49.35016c2.38959-0.77295,4.12354-3.01666,4.12354-5.6601v-1.41541l0.7002-1.26672
					c4.12402-7.46777,6.52246-12.19678,6.54688-12.24365l0.0022-0.00439h14.95093L165.22693,65.35742z M82.73407,95.28027
					l38.63367-69.94043h12.36395L95.09711,95.28027H82.73407z M137.73004,25.33984h12.59741l-38.63367,69.94043H99.09546
					L137.73004,25.33984z M152.70605,28.27203v11.99799c0,2.53577,1.59735,4.70001,3.83661,5.55493l-27.3186,49.45532h-13.53198
					L152.70605,28.27203z M167.91748,25.33984c-0.69208,1.33057-1.8139,3.46271-3.31104,6.23047v-6.23047H167.91748z
					 M156.20605,5.9502c0-1.35107,1.09961-2.4502,2.4502-2.4502s2.4502,1.09912,2.4502,2.4502v34.31982
					c0,1.35059-1.09961,2.44971-2.4502,2.44971s-2.4502-1.09912-2.4502-2.44971V5.9502z M105.80859,25.33984h11.56085
					L78.73578,95.28027H67.18213L105.80859,25.33984z M77.96582,192.95996V98.78027h73.21484l3.44531-6.38922v100.56891H77.96582z
					 M176.8457,145.75488l3.2207-3.2207v26.40918h-3.2207V145.75488z M188.70605,161.80762l-5.13965,4.96832v-32.69098
					l-15.98047,15.98047v32.15814l-9.45996,9.14447V85.90045l6.97168-12.92871v17.25677h3.67773V66.15155l8.41113-15.59814v15.58624
					h3.5V44.06281l8.01953-14.87189V161.80762z"/>
			<path class="stage1" fill="#32BA99" d="M130.81642,131.91113c-3.59473,0-6.51856,2.92383-6.51856,6.51855s2.92383,6.51855,6.51856,6.51855
					c3.59473,0,6.51855-2.92383,6.51855-6.51855S134.41115,131.91113,130.81642,131.91113z M130.81642,141.44824
					c-1.66406,0-3.01856-1.35449-3.01856-3.01855s1.3545-3.01855,3.01856-3.01855s3.01855,1.35449,3.01855,3.01855
					S132.48048,141.44824,130.81642,141.44824z M101.09473,138.42969c0-3.59473-2.92383-6.51855-6.51855-6.51855
					s-6.51855,2.92383-6.51855,6.51855s2.92383,6.51855,6.51855,6.51855S101.09473,142.02441,101.09473,138.42969z
					 M91.55762,138.42969c0-1.66406,1.35449-3.01855,3.01855-3.01855s3.01855,1.35449,3.01855,3.01855
					s-1.35449,3.01855-3.01855,3.01855S91.55762,140.09375,91.55762,138.42969z M127.6963,153.59961h-8.93066h-1.75H99.61622
					c-4.07422,0-7.38965,3.31543-7.38965,7.39062c0,4.07422,3.31543,7.38965,7.38965,7.38965h28.08008
					c4.07423,0,7.38966-3.31543,7.38966-7.38965C135.08595,156.91504,131.77052,153.59961,127.6963,153.59961z M95.72657,160.99023
					c0-2.14551,1.74512-3.89062,3.88965-3.89062h5.14404c-3.09802,2.33362-4.52399,5.38812-4.94708,7.78027h-0.19696
					C97.47169,164.87988,95.72657,163.13477,95.72657,160.99023z M127.6963,164.87988h-24.27527
					c0.71808-2.55316,3.42847-7.78027,13.5946-7.78027h1.75h8.93066c2.14454,0,3.88966,1.74512,3.88966,3.89062
					C131.58595,163.13477,129.84084,164.87988,127.6963,164.87988z M139.72169,123.0332l1.35645,1.10547l-2.21094,2.71289
					l-1.35645-1.10547c-24.52345-19.98145-47.71192-1.39258-47.94337-1.2041l-1.35254,1.11133l-2.22168-2.7041l1.35156-1.11035
					C87.59962,121.62988,113.00001,101.25879,139.72169,123.0332z M164.60646,21.83984V5.9502c0-3.28076-2.66896-5.9502-5.9502-5.9502
					c-3.28125,0-5.9502,2.66943-5.9502,5.9502v15.88965h-48.96192L61.25001,98.78027h13.21582v49.11017l-0.7207,0.52557
					c-0.1709,0.125-4.24023,3.09863-7.82617,6.35938c-3.20507,2.91406-6.90234,4.30176-8.99121,3.37891
					c-2.05078-0.90723-2.48145-3.9834-2.48145-6.4043v-16.15869c0.13959,0.00494,0.27692,0.01709,0.41797,0.01709
					c3.4502,0,7.28906-1.45508,9.48925-3.375c2.34863-2.04883,2.24512-4.00195,1.97461-4.9834
					c-0.25684-0.93066-0.85547-1.67188-1.73242-2.14258c-0.86425-0.46484-1.94726-0.61133-3.02343-0.59277l-0.0752-0.93652
					c-0.32617-4.06836-0.92969-8.55664-3.96484-10.3252c-1.66211-0.96973-3.69922-0.90332-6.05469,0.19043
					c-3.46973,1.61426-5.33984,5.18066-5.26562,10.04395c0.06696,4.34583,1.88672,9.76068,4.73438,11.2937V151.75
					c0,6.26953,2.48242,8.68359,4.56543,9.60547c0.9375,0.41504,1.92577,0.59863,2.93457,0.59863
					c3.46094-0.00098,7.1582-2.16309,9.82617-4.58887c2.22986-2.02686,4.70795-3.97791,6.19336-5.1131v44.20782h83.66016v-0.22382
					l13.3291-12.88458l-0.36914-0.3819v-31.45502l2.25977-2.25977v23.18848h9.39453l9.46582-9.15137V21.83984H164.60646z
					 M52.95411,116.61719c0.7793-0.3623,1.43945-0.54395,1.97559-0.54395c0.32715,0,0.6084,0.06738,0.84082,0.20312
					c1.70898,0.99609,2.08008,5.61133,2.23828,7.58301l0.09277,1.16113c-0.51562,0.13086-0.90723,0.25293-1.10449,0.31738
					l-1.66309,0.54395l1.08789,3.32617l1.66309-0.54395c1.95117-0.63867,4.41992-0.86523,4.86914-0.48438
					c0.08301,0.30371-0.2793,0.87305-0.90234,1.41699c-2.14551,1.87305-6.8291,3.23926-9.42285,2.12793
					c-0.98633-0.42285-2.85352-4.12598-2.91699-8.29102C49.68165,121.46484,50.0625,117.96191,52.95411,116.61719z
					 M165.22694,65.35742h-0.12927v0.23969l-10.44153,19.36285h-0.03015v0.05591l-5.53516,10.2644h-15.86841l27.2605-49.35016
					c2.38959-0.77295,4.12354-3.01666,4.12354-5.6601v-1.41541l0.7002-1.26672c4.12402-7.46777,6.52246-12.19678,6.54688-12.24365
					l0.0022-0.00439h14.95093L165.22694,65.35742z M82.73316,95.28027l38.63458-69.94043h12.36396L95.09711,95.28027H82.73316z
					 M137.73006,25.33984h12.59735l-38.63459,69.94043H99.09547L137.73006,25.33984z M152.70607,28.27197v11.99805
					c0,2.53577,1.59735,4.70001,3.83661,5.55493l-27.3186,49.45532h-13.53291L152.70607,28.27197z M167.9175,25.33984
					c-0.69208,1.33057-1.8139,3.46271-3.31104,6.23047v-6.23047H167.9175z M156.20607,5.9502c0-1.35107,1.09961-2.4502,2.4502-2.4502
					s2.4502,1.09912,2.4502,2.4502v34.31982c0,1.35059-1.09961,2.44971-2.4502,2.44971s-2.4502-1.09912-2.4502-2.44971V5.9502z
					 M105.8086,25.33984h11.56079L78.73481,95.28027H67.18165L105.8086,25.33984z M77.96583,192.95996V98.78027h73.21485
					l3.44531-6.38922v100.56891H77.96583z M176.84572,145.75488l3.2207-3.2207v26.40918h-3.2207V145.75488z M188.70607,161.80762
					l-5.13965,4.96832v-32.69098l-15.98047,15.98047v32.15814l-9.45996,9.14447V85.90045l6.97168-12.92871v17.25677h3.67773V66.15155
					l8.41113-15.59814v15.58624h3.5V44.06281l8.01953-14.87189V161.80762z"/>
</svg>
