<svg width="18" height="18" viewBox="0 0 18 18" fill="none" xmlns="http://www.w3.org/2000/svg">
<path d="M10.7038 12.5656C9.49915 12.1324 8.39795 11.4346 7.48151 10.5181C6.56506 9.6017 5.86725 8.5005 5.43402 7.2958H6.92102V0.890617H0V4.3511C0 7.9968 1.4198 11.4241 3.99756 14.0021C6.5755 16.5798 10.0029 17.9996 13.6485 17.9996H17.109V11.0786H10.7038V12.5656ZM12.11 14.4069V12.4849H15.7028V16.5934H13.6485C10.3786 16.5934 7.30426 15.3201 4.992 13.0076C2.67975 10.6954 1.40625 7.621 1.40625 4.3511V2.29688H5.51477V5.8896H3.59271L3.80566 6.7599C4.24493 8.5541 5.172 10.1975 6.48706 11.5126C7.80212 12.8275 9.4455 13.7547 11.2397 14.194L12.11 14.4069Z" fill="white"/>
</svg>
