<svg xmlns="http://www.w3.org/2000/svg" xmlns:xlink="http://www.w3.org/1999/xlink">
	<symbol id="loop" viewBox="0 0 58.625 53.25">
		<path fill="#1BC09B" d="M56.01355,29.48438c-0.00159-7.54156-9.36804-13.67676-20.88171-13.67676
				c-3.56451,0-6.92108,0.59058-9.85992,1.6264L9.3916,1.55371L9.36768,1.57764C7.60504,0.77399,4.85919,0.78717,2.9126,2.72266
				C1.14362,4.48193,1.06415,7.0918,1.73785,8.78949L1.73779,8.78955l0.00012,0.00012
				C1.742,8.79993,1.74438,8.81207,1.74854,8.82227l0.01575-0.00641l14.6889,14.59137
				c-1.39661,1.83356-2.20258,3.89264-2.20306,6.07715H14.25v9.51074h0.03058c0.32349,7.36011,9.54083,13.28516,20.85126,13.28516
				c11.31085,0,20.52777-5.92505,20.85126-13.28516h0.03058v-9.51074H56.01355z M54.01367,29.48633
				c0,6.43945-8.4707,11.67773-18.88184,11.67773c-10.41162,0-18.88184-5.23828-18.88184-11.67773
				s8.47021-11.67871,18.88184-11.67871C45.54297,17.80762,54.01367,23.04688,54.01367,29.48633z M4.32275,4.14062
				C5.66772,2.8028,7.39624,2.97321,8.3183,3.30853l9.466,9.466c-1.13043,0.15564-2.27887,0.6366-3.23401,1.5863
				c-0.75861,0.75421-1.19989,1.85492-1.36273,2.98364L3.4812,7.70258C3.22137,6.72351,3.25922,5.19904,4.32275,4.14062z
				 M15.24127,19.38458c-0.28973-1.11017-0.07373-2.81732,0.71918-3.60577c1.34595-1.33795,3.07312-1.16779,3.99597-0.83215
				l3.30157,3.30157c-2.15808,0.98145-4.02441,2.21851-5.48688,3.64941L15.24127,19.38458z M54.01367,38.59961
				c0,6.44043-8.4707,11.68066-18.88184,11.68066c-10.41162,0-18.88184-5.24023-18.88184-11.68066v-3.31049
				c3.34125,4.64478,10.53754,7.87494,18.88184,7.87494c8.3446,0,15.54071-3.2301,18.88184-7.87488V38.59961z"/>
		<path fill="#1BC09B" d="M34.96973,36.83008c7.44922,0,13.28516-3.3125,13.28516-7.54102c0-4.229-5.83594-7.5415-13.28516-7.5415
				s-13.28418,3.3125-13.28418,7.5415C21.68555,33.51758,27.52051,36.83008,34.96973,36.83008z M34.96973,23.74756
				c6.11719,0,11.28516,2.5376,11.28516,5.5415s-5.16797,5.54102-11.28516,5.54102c-6.1167,0-11.28418-2.53711-11.28418-5.54102
				S28.85303,23.74756,34.96973,23.74756z"/>
	</symbol>


	<use xlink:href="#loop" width="100%" height="100%" x="0" y="0"/>
</svg>
