<svg class="hover-check" xmlns="http://www.w3.org/2000/svg" xmlns:xlink="http://www.w3.org/1999/xlink">
	<symbol viewBox="0 0 120 110" id="catalog8">
		<path d="M95.3575,108.17947l-9.12693-33.54539l9.37849-9.00082V53.83305l24.81866-19.63982H64.72039
			L29.98091,61.68371h13.35969l12.65001,46.49576H18.42284v2.00215h113.15431v-2.00215H95.3575z M76.23533,61.68371l1.8359,6.74797
			H51.64781l-1.83602-6.74797H76.23533z M49.26708,59.68156l-0.63893-2.34823h26.42353l0.63887,2.34823H49.26708z
				M77.12655,57.33333h2.32195l3.01966,11.09835h-2.32207L77.12655,57.33333z M78.61594,70.43384l3.57116,13.12592H55.76381
			l-3.57128-13.12592H78.61594z M82.73181,85.5619l3.61992,13.30531H59.92862l-3.6201-13.30531H82.73181z M86.89651,100.86937
			l1.98883,7.3101H62.46229l-1.98895-7.3101H86.89651z M88.97137,100.86937h2.32232l1.98895,7.3101H90.9602L88.97137,100.86937z
				M90.74897,98.86722h-2.32238L84.80667,85.5619h2.3222L90.74897,98.86722z M86.58416,83.55975h-2.3222L80.6908,70.43384h2.32207
			L86.58416,83.55975z M93.6069,64.77981l-7.97512,7.65361l-2.92477-10.74971h2.98122l7.91867-6.26632V64.77981z M93.6069,52.86448
			l-8.61473,6.81708h-2.82988l-0.63893-2.34823h3.89407l8.18947-6.45732V52.86448z M114.67153,36.19538L95.60905,51.28008v-1.98272
			l16.61649-13.10197H114.67153z M35.7371,59.68156l2.96742-2.34823h3.45244l0.63887,2.34823H35.7371z M41.23465,55.33118
			l24.1818-19.1358h43.57576l-24.26888,19.1358H41.23465z M44.23182,57.33333h2.32146l13.83414,50.84614h-2.32195
			L44.23182,57.33333z"/>
	</symbol>
	
	<use xlink:href="#catalog8" width="100" height="103" x="1400" y="0"/>
</svg>
